<svg xmlns="http://www.w3.org/2000/svg" version="1.1" xmlns:xlink="http://www.w3.org/1999/xlink" xmlns:svgjs="http://svgjs.com/svgjs" width="1000" height="1125"><svg xmlns="http://www.w3.org/2000/svg" version="1.1" xmlns:xlink="http://www.w3.org/1999/xlink" xmlns:svgjs="http://svgjs.dev/svgjs" width="1000" height="1125" viewBox="0 0 1000 1125"><g transform="matrix(1,0,0,1,1.7053025658242404e-13,0)"><svg xmlns="http://www.w3.org/2000/svg" version="1.1" xmlns:xlink="http://www.w3.org/1999/xlink" xmlns:svgjs="http://svgjs.com/svgjs" viewBox="0 0 320 360" data-background-color="#333333" preserveAspectRatio="xMidYMid meet" height="1125" width="1000"><defs></defs><g id="SvgjsG1001" transform="matrix(1,0,0,1,0,0)"><svg viewBox="0 0 320 360" height="360" width="320"><g><svg xmlns="http://www.w3.org/2000/svg" version="1.1" xmlns:xlink="http://www.w3.org/1999/xlink" xmlns:svgjs="http://svgjs.com/svgjs"></svg></g><g><svg viewBox="0 0 320 360" height="360" width="320"><g><path d="M20.961 227.22l3.726 4.658-1.863-6.056c-0.466-2.795-3.726 0.466-1.863 1.398M25.153 224.425c1.397 2.329 2.795 4.658 2.795 6.987 0 3.261 2.795 4.658 5.123 5.589-3.261-3.726-5.124-13.974-7.918-12.576M204.017 26.929c7.918 0 15.371-0.932 23.756 0.931 20.495 5.124 37.729 15.371 49.374 29.811l32.606 52.169c1.397 13.042 4.192 27.482 3.726 43.319 3.261 0 2.795-4.658 6.521-5.59-3.726 9.316-5.59 20.961-6.521 34.469-2.329-7.453 0-18.632 0.466-24.687-3.261 5.124-5.124 1.397-5.124-0.932 0.466-3.726-1.397-3.261-2.795-4.658-5.124-4.658-8.384-9.782-12.11-17.7 2.329-6.055 2.795-14.905-4.658-19.563-2.329-1.397-5.124-3.726-6.521-7.453-1.863-5.124-5.124-11.179-4.193-19.097 0.466-2.329-6.987 5.124-11.179 1.863-18.166-12.576-36.332-27.016-58.224-39.127-11.645 0-20.029-4.192-24.221-9.316-3.726-4.658-0.932-10.713 4.658-11.179 3.261 0 6.987-0.932 9.782 0.932 0.466-1.863 2.329-4.192 4.657-4.192M157.904 16.215l0.932 0.466c4.658 0.932 6.987 7.453 12.11 5.124 0 3.261 0.466 6.521-0.466 8.85-1.397 3.726-5.59 3.726-8.85 3.726-31.208-1.863-49.374 11.179-68.471 22.358-5.124 3.261-10.713 5.59-14.906 9.782-20.029 18.632-41.921 35.866-47.045 70.335l-4.192 38.195c-0.466 4.192-5.124 8.384-4.192 13.508l3.26 22.824c-3.261-3.261-5.124 0.932-4.192 2.795 0.466 1.397 2.329 6.055 5.124 1.863 3.726 6.987 7.453 20.495 12.576 26.55 15.837 18.632 36.332 35.4 53.101 52.169 4.192-0.932 7.453-0.932 8.384-3.727 1.397 2.795-1.397 5.59-3.726 6.056 7.453 4.658 15.837 8.85 27.016 9.781 14.44 0.932 27.948 3.261 40.524 6.522 6.521-1.863 13.042-2.795 20.029-3.261 2.329 0 3.726-3.726 6.521-4.658l0.466-4.658c2.795 4.192 2.329-1.397 0.466-4.192 3.261 2.795 4.192 5.124 5.589 6.987 0-1.397 3.726-6.521 3.727-0.466l0.931-6.055c1.397-0.932 1.863 5.124 3.261 0.931 1.397-4.192 4.192-0.932 6.987-2.329-0.932 1.863-0.466 5.59 2.794 3.261l3.727-3.261c2.329 5.59 6.055 3.261 7.918 2.329 20.495-13.042 40.99-28.413 60.553-43.784l-0.466 6.055 2.329-7.453c2.329 2.329 4.192 0.466 5.124-0.931 2.795-4.658 6.521-9.316 12.577-13.508-7.453 20.029-16.303 35.866-27.482 48.908l-4.658 5.59c0 3.261-0.932 7.453-4.658 7.918-1.863 0.466-5.59-0.932-8.384 1.863-1.397 1.863 3.261 5.59-0.466 2.795-3.261-2.329-6.521 0-10.248 0.932-2.795 0.932 1.863 3.726 2.795 5.589 0.932 1.863 1.863 3.726 1.398 6.056l-5.124-5.59c-6.055 3.261-9.782 9.316-14.906 13.974-2.329 1.863-1.397 5.124-1.397 7.918-3.261 0-6.987-0.932-8.85 0.932-1.397 1.863-0.932 4.658-0.932 7.453-4.658-0.466-5.124-7.453-9.315-6.056-4.192 0.932-8.85 1.397-12.577 3.727 2.795 5.59-4.658 2.329-3.726 3.26-6.987-4.192-13.042-7.453-20.495-4.658-15.837-5.124-35.4-2.795-49.84-0.931 0-2.329 0.466-4.658-0.466-5.124-0.932 2.329-3.726 1.397-3.26 1.397-8.85-6.055-17.7-9.782-27.016-14.905-8.384 0.932-16.303-3.261-18.632-5.59-6.521-6.055-13.974-2.795-20.029-4.192-13.042-3.261-17.7-16.769-19.098-26.084-0.932-4.658-4.658-6.521-6.055-6.056-6.055-19.563-15.371-37.263-22.824-55.429-1.863-4.658-1.397-9.316-1.397-14.44 2.329 0.932 4.658 0.466 4.192-2.794-2.329-15.371-7.918-27.016-13.974-38.195 3.261-15.837 3.726-34.469 11.179-48.443 6.521-12.576 18.632-19.098 27.016-29.811 2.795-3.726 2.795-8.85 5.59-12.11 9.316-9.316 18.632-19.098 28.879-27.482 4.658-3.726 10.247 0 17.234-1.397 2.329-8.384 11.645-15.837 20.495-13.508 3.726 0.932 11.179-8.85 13.508-9.782 3.726-1.397 1.863 3.726 1.863 6.987 8.85-6.987 20.961-10.713 32.14-14.906" fill="#5acc5a" data-fill-palette-color="tertiary"></path></g><g transform="matrix(1,0,0,1,56,135.71371451419432)"><svg viewBox="0 0 208 88.57257097161136" height="88.57257097161136" width="208"><g><svg viewBox="0 0 208 88.57257097161136" height="88.57257097161136" width="208"><g><svg viewBox="0 0 208 88.57257097161136" height="88.57257097161136" width="208"><g><svg viewBox="0 0 208 88.57257097161136" height="88.57257097161136" width="208"><g><svg viewBox="0 0 208 88.57257097161136" height="88.57257097161136" width="208"><g><svg viewBox="0 0 208 88.57257097161136" height="88.57257097161136" width="208"><g transform="matrix(1,0,0,1,0,0)"><svg width="208" viewBox="1.45 -38.05 125.03999999999999 53.25" height="88.57257097161136" data-palette-color="#5ecd5d"><path d="M16.55 13.75L16.55 13.75Q13.75 13.75 11.78 12.03 9.8 10.3 9.8 6.75 9.8 3.2 13.2 0.1L13.2 0.1Q7.15-0.75 4.3-4.58 1.45-8.4 1.45-14.48 1.45-20.55 3.68-25.88 5.9-31.2 10.3-34.63 14.7-38.05 19.83-38.05 24.95-38.05 27.88-35.58 30.8-33.1 30.8-28.8 30.8-24.5 28.25-21.88 25.7-19.25 22.23-19.25 18.75-19.25 16.85-20.78 14.95-22.3 14.95-24.03 14.95-25.75 16.32-26.73 17.7-27.7 20.35-27.7L20.35-27.7Q19.7-27.05 19.7-25.98 19.7-24.9 20.35-24.1 21-23.3 22.33-23.3 23.65-23.3 24.83-24.7 26-26.1 26-28.53 26-30.95 24.75-32.3 23.5-33.65 20.95-33.65L20.95-33.65Q17.55-33.65 14.78-30.9 12-28.15 10.55-23.9 9.1-19.65 9.1-14.95L9.1-14.95Q9.1-10.9 10.85-7.8L10.85-7.8Q11.75-6.2 13.53-5.25 15.3-4.3 17.03-4.3 18.75-4.3 19.8-4.45L19.8-4.45 21.05-15.35 28.05-15.35 26.95-7.2Q32.35-10.05 34.05-13.4L34.05-13.4 36-10.65Q32.75-5.65 26.4-3.05L26.4-3.05 25.75 2.35Q25.35 6 24.3 8.45 23.25 10.9 21.83 11.98 20.4 13.05 19.2 13.4 18 13.75 16.55 13.75ZM14.25 6.6L14.25 6.6Q14.25 7.5 14.8 8.15 15.35 8.8 16.07 8.8 16.8 8.8 17.2 8.55 17.6 8.3 18.05 7.25 18.5 6.2 18.75 4.3L18.75 4.3 19.25 0.2Q14.25 3.3 14.25 6.6ZM46.2 6.5L47.15-1.35Q44.85 0.3 41.45 0.3 38.05 0.3 35.27-2.45 32.5-5.2 32.5-9.7L32.5-9.7Q32.5-16.25 36.35-20.15 40.2-24.05 46.1-24.05L46.1-24.05Q46.25-24.05 46.4-24.05L46.4-24.05Q48.85-24.05 51-23.2L51-23.2Q52.6-24.05 54.27-24.05 55.95-24.05 56.8-23.55L56.8-23.55Q54.85-7.95 54.65-6.3L54.65-6.3 54.4-4.25Q55.7-4.25 56.35-4.3L56.35-4.3Q58.4-4.45 60.3-6.28 62.2-8.1 63.25-11.75L63.25-11.75Q64.85-9.75 65.15-8.85L65.15-8.85Q63.9-4.75 61.52-2.58 59.15-0.4 56.45 0.1L56.45 0.1Q59.85 4.1 59.85 7.7L59.85 7.7Q59.85 7.85 59.85 8L59.85 8Q59.85 9.95 59.17 11.48 58.5 13 57.35 13.75L57.35 13.75Q55.15 15.2 53.05 15.2L53.05 15.2Q49.35 15.2 47.5 12.9L47.5 12.9Q46.1 11.05 46.1 8.15L46.1 8.15Q46.1 7.35 46.2 6.5L46.2 6.5ZM46.85-20.15L46.85-20.15Q43.65-20.15 41.77-17.73 39.9-15.3 39.55-10.5L39.55-10.5Q39.5-10.05 39.5-9.65L39.5-9.65Q39.5-7.2 40.67-5.75 41.85-4.3 43.7-4.3L43.7-4.3Q46.5-4.3 48.1-7.85L48.1-7.85 49.45-19.65Q48.1-20.15 46.85-20.15ZM53.65 1.15L53.65 1.15Q52.85 7.5 52.85 8.47 52.85 9.45 53.45 10.03 54.05 10.6 54.87 10.6 55.7 10.6 56.35 9.93 57 9.25 57 7.95L57 7.95Q57 4.5 53.65 1.15ZM75.7 0.45L75.7 0.45 61.8 0.15Q61.15 0.15 61.15-1.63 61.15-3.4 61.9-4.4L61.9-4.4Q62.65-6.4 66.05-10.25L66.05-10.25Q67.15-11.5 70.15-14.75 73.15-18 74.09-19.2L74.09-19.2 71.45-19.35Q70.7-17.55 69.27-16.43 67.84-15.3 66.09-15.3L66.09-15.3Q64.09-15.3 62.85-16.48 61.6-17.65 61.6-19.75 61.6-21.85 63.05-23.1 64.5-24.35 67.05-24.35L67.05-24.35 80.95-24.05Q81.59-24.05 81.59-22.35L81.59-22.35Q81.59-20.6 80.95-19.65L80.95-19.65Q80.34-18.55 79.22-17.32 78.09-16.1 75.95-14.08 73.8-12.05 72.95-11.2L72.95-11.2Q69.59-7.85 67.95-4.75L67.95-4.75 71.3-4.55Q72.05-6.35 73.47-7.48 74.9-8.6 76.65-8.6L76.65-8.6Q78.65-8.6 79.9-7.43 81.15-6.25 81.15-4.15 81.15-2.05 79.7-0.8 78.25 0.45 75.7 0.45ZM66.65-19.7L66.65-19.7Q64.9-19.7 64.9-18.55 64.9-17.4 66.2-17.4L66.2-17.4Q68.15-17.4 69.3-19.5L69.3-19.5 67.25-19.65Q66.95-19.7 66.65-19.7ZM76.09-4.2L76.09-4.2Q77.84-4.2 77.84-5.35 77.84-6.5 76.55-6.5L76.55-6.5Q74.59-6.5 73.45-4.4L73.45-4.4 75.5-4.25Q75.8-4.2 76.09-4.2ZM99.29-16.95L99.29-16.95Q99.29-20.2 96.39-20.2L96.39-20.2Q94.24-20.2 92.54-17.75L92.54-17.75Q90.74-15.1 90.74-11.55 90.74-8 92.32-6.08 93.89-4.15 96.64-4.15L96.64-4.15Q99.94-4.15 103.62-6.85 107.29-9.55 109.54-13.55L109.54-13.55Q110.54-12.8 111.49-10.8L111.49-10.8Q110.04-7.9 106.09-4.3L106.09-4.3Q104.04-2.4 100.99-1.1L100.99-1.1Q97.69 0.3 94.39 0.3L94.39 0.3Q89.94 0.3 86.87-2.75 83.79-5.8 83.79-10.7L83.79-10.7Q83.79-16.65 87.79-20.35 91.79-24.05 96.74-24.05L96.74-24.05Q100.59-24.05 102.84-22.45 105.09-20.85 105.09-18.25L105.09-18.25Q105.09-16.55 103.89-15.3L103.89-15.3Q101.69-13.1 98.54-13.1L98.54-13.1Q99.29-15.6 99.29-16.95ZM113.82 0.35Q110.74 0.35 108.99-1.38 107.24-3.1 107.24-6.1L107.24-6.1Q107.24-6.9 109.94-29.85L109.94-29.85Q110.64-35.75 113.69-37.3L113.69-37.3Q115.09-38.05 117.04-38.05L117.04-38.05Q123.64-38.05 123.64-31.95L123.64-31.95Q123.64-31.45 123.59-30.9L123.59-30.9Q123.09-24.2 115.19-17.25L115.19-17.25Q114.94-14.8 114.64-12.5L114.64-12.5Q114.04-7.35 114.04-6.8L114.04-6.8Q114.04-4.2 116.29-4.2L116.29-4.2Q118.74-4.2 120.87-7.03 122.99-9.85 124.14-14.25L124.14-14.25Q124.59-14.1 125.39-13.43 126.19-12.75 126.49-12.25L126.49-12.25Q125.69-8.1 122.89-4.3L122.89-4.3Q121.49-2.35 119.34-1.1L119.34-1.1Q116.89 0.35 113.82 0.35ZM115.89-23.75L115.74-22.25Q120.34-27.3 120.34-31.3L120.34-31.3Q120.34-33.7 118.54-33.7L118.54-33.7Q117.39-33.6 117.02-32.2 116.64-30.8 116.32-27.65 115.99-24.5 115.89-23.75L115.89-23.75Z" opacity="1" transform="matrix(1,0,0,1,0,0)" fill="#5ecd5d" class="undefined-text-0" data-fill-palette-color="primary" id="SvgjsPath1000"></path></svg></g></svg></g></svg></g></svg></g><g></g></svg></g></svg></g></svg></g></svg></g></svg><rect width="320" height="360" fill="transparent" stroke="transparent"></rect></g></svg></g></svg><style>@media (prefers-color-scheme: light) { :root { filter: none; } }
</style></svg>