<?xml version="1.0" standalone="no"?>
<!DOCTYPE svg PUBLIC "-//W3C//DTD SVG 20010904//EN"
 "http://www.w3.org/TR/2001/REC-SVG-20010904/DTD/svg10.dtd">
<svg version="1.0" xmlns="http://www.w3.org/2000/svg"
 width="1125.000000pt" height="1125.000000pt" viewBox="0 0 1125.000000 1125.000000"
 preserveAspectRatio="xMidYMid meet">
<metadata>
Created by potrace 1.14, written by Peter Selinger 2001-2017
</metadata>
<g transform="translate(0.000000,1125.000000) scale(0.100000,-0.100000)"
fill="#000000" stroke="none">
<path d="M5495 10721 c-27 -10 -57 -20 -65 -24 -8 -3 -77 -28 -153 -56 -306
-113 -486 -198 -641 -303 l-89 -60 8 63 c4 35 8 75 10 89 9 75 -46 93 -112 38
-21 -18 -72 -65 -113 -104 -108 -103 -140 -129 -188 -154 -36 -19 -50 -21
-104 -14 -179 22 -321 -29 -459 -167 -57 -57 -87 -97 -118 -159 -22 -45 -41
-88 -41 -96 0 -11 -27 -13 -147 -8 -284 11 -294 11 -343 -13 -46 -23 -53 -29
-170 -131 -241 -210 -778 -743 -815 -807 -13 -22 -37 -83 -55 -135 -68 -199
-58 -187 -561 -673 -107 -103 -215 -215 -241 -250 -183 -245 -281 -515 -362
-997 -3 -19 -8 -44 -10 -55 -2 -11 -7 -42 -10 -70 -6 -42 -25 -171 -51 -340
-4 -22 -15 -88 -25 -146 l-19 -106 98 -194 c137 -272 254 -577 287 -747 1 -7
7 -34 13 -60 58 -245 49 -298 -49 -289 l-46 4 1 -136 c1 -75 5 -155 9 -178 4
-24 8 -46 8 -50 0 -10 44 -130 58 -158 5 -11 35 -78 65 -150 31 -71 63 -143
70 -160 125 -274 299 -676 356 -820 22 -55 44 -109 49 -120 14 -30 99 -271
121 -342 16 -50 24 -63 40 -63 39 0 99 -45 134 -101 13 -20 32 -80 45 -140 82
-403 253 -644 528 -747 60 -23 85 -26 237 -29 256 -5 333 -25 439 -113 140
-116 348 -190 521 -185 67 1 74 -1 180 -55 441 -228 543 -284 674 -369 35 -22
69 -42 75 -42 29 -3 53 4 72 23 28 25 36 13 34 -55 -2 -74 -1 -89 7 -84 5 3
33 8 63 11 30 4 66 9 80 11 14 2 52 7 85 10 33 3 83 8 110 11 104 11 134 13
260 19 210 11 483 6 575 -10 14 -2 43 -7 65 -10 81 -11 112 -17 207 -42 94
-24 100 -24 164 -10 63 15 163 15 229 2 51 -11 170 -62 255 -110 45 -26 90
-48 99 -50 40 -8 88 -8 109 -1 20 7 23 13 20 39 -3 18 -7 38 -9 46 -8 28 178
96 321 117 19 3 49 9 66 13 44 12 84 -8 130 -64 70 -86 118 -125 152 -125 4 0
8 39 8 88 3 158 24 178 191 176 l113 -2 -2 87 c-2 101 8 125 79 192 26 25 86
87 132 138 46 51 108 115 137 143 54 51 146 118 162 118 8 0 136 -136 154
-164 9 -13 11 1 9 54 -2 56 -39 130 -102 200 -33 35 -59 70 -59 76 0 32 205
92 291 85 9 0 33 -12 53 -26 47 -32 50 -31 31 5 -44 85 11 131 160 135 113 3
139 11 178 55 34 37 56 103 57 168 1 20 39 73 141 196 350 421 583 822 809
1390 28 70 49 130 47 133 -9 8 -155 -116 -218 -186 -35 -40 -92 -113 -126
-163 -85 -123 -118 -144 -174 -106 l-26 17 -32 -104 c-31 -102 -46 -134 -37
-77 5 28 9 97 7 120 -1 11 -86 -50 -191 -135 -95 -78 -658 -500 -840 -632
-339 -244 -823 -570 -893 -601 -84 -38 -153 -19 -192 53 l-18 35 -69 -58 c-82
-69 -102 -76 -130 -48 -16 16 -19 29 -16 62 l5 41 -81 -1 c-45 0 -87 -4 -94
-8 -7 -4 -24 -30 -37 -57 -14 -27 -27 -49 -30 -49 -3 0 -16 18 -30 40 -14 22
-29 40 -34 40 -5 0 -15 -39 -22 -87 -11 -72 -14 -82 -20 -58 -16 58 -48 53
-89 -12 l-28 -44 -37 56 c-21 31 -57 77 -81 103 l-44 47 14 -35 c19 -48 28
-112 17 -129 -7 -11 -12 -10 -27 8 -26 29 -30 27 -33 -21 -2 -24 -4 -53 -5
-66 -1 -12 -13 -30 -26 -39 -14 -9 -53 -43 -88 -75 -34 -32 -73 -58 -85 -59
-157 -8 -378 -39 -528 -76 l-107 -26 -154 36 c-84 20 -191 44 -238 52 -47 9
-105 20 -130 25 -47 10 -166 30 -210 35 -53 6 -126 16 -155 20 -16 3 -57 7
-90 10 -33 3 -78 7 -100 10 -22 2 -71 7 -110 10 -149 13 -173 15 -255 31 -177
33 -422 131 -603 241 l-58 35 46 29 c47 30 75 75 75 123 0 31 -17 43 -25 17
-6 -20 -73 -58 -116 -66 -13 -3 -48 -9 -78 -15 l-55 -10 -105 103 c-97 94
-178 171 -286 271 -22 21 -92 86 -155 146 -63 60 -126 118 -140 130 -213 184
-760 732 -946 949 -16 19 -34 39 -40 45 -12 12 -104 163 -104 170 0 3 -15 37
-34 78 -18 40 -67 156 -108 258 -42 102 -88 213 -103 247 -26 59 -29 61 -44
44 -56 -63 -105 -37 -145 76 -12 33 -11 44 1 76 18 45 53 58 95 34 33 -19 33
-18 19 78 -5 33 -12 80 -15 105 -3 25 -8 59 -11 75 -2 17 -7 48 -10 70 -3 22
-8 54 -10 70 -3 17 -7 44 -9 60 -2 17 -12 86 -21 154 -22 152 -16 191 50 324
53 106 70 163 79 268 4 40 9 90 11 109 7 51 14 116 20 174 6 60 14 137 20 186
8 63 25 214 30 265 7 69 15 143 20 185 3 19 9 76 15 125 36 306 118 581 255
856 178 358 433 671 900 1104 66 61 149 137 185 171 218 203 256 231 510 378
74 42 198 115 275 162 77 47 151 90 165 97 14 6 27 14 30 17 19 22 367 201
504 260 174 73 436 154 571 176 21 3 46 7 55 9 10 2 40 6 67 10 26 4 59 9 73
12 14 3 157 7 317 9 301 3 351 9 397 45 53 42 68 91 69 224 1 72 -3 119 -8
118 -65 -10 -83 -10 -114 3 -19 8 -67 41 -106 72 -112 93 -162 110 -240 83z
m-4038 -6503 c25 -27 46 -68 103 -201 24 -54 53 -114 66 -133 27 -40 26 -40
-24 -15 -71 36 -99 73 -108 138 -9 70 -15 98 -25 108 -5 5 -9 15 -9 23 0 7
-11 30 -25 50 -14 20 -25 40 -25 44 0 16 27 7 47 -14z m-117 -46 c7 -26 21
-71 31 -99 10 -29 15 -53 11 -52 -13 1 -122 146 -122 162 0 20 38 47 55 41 7
-3 18 -26 25 -52z"/>
<path d="M7070 10410 c-86 -4 -121 -9 -141 -22 -26 -19 -61 -62 -72 -90 -5
-15 -9 -15 -49 -1 -42 15 -188 19 -268 8 -80 -11 -149 -60 -176 -125 -22 -52
-20 -129 6 -176 66 -119 247 -240 440 -292 95 -26 110 -28 316 -47 29 -2 81
-27 180 -85 76 -45 154 -91 173 -102 108 -62 469 -305 737 -495 130 -92 253
-180 273 -194 20 -14 108 -77 196 -140 88 -64 198 -141 245 -173 82 -57 86
-58 141 -54 41 3 83 17 153 51 53 25 96 45 96 44 0 -178 19 -316 57 -407 3 -8
7 -19 9 -25 10 -32 31 -86 37 -91 4 -4 7 -13 7 -20 0 -8 15 -47 34 -87 40 -84
98 -148 201 -222 38 -27 86 -72 106 -99 78 -103 99 -258 58 -426 l-21 -86 47
-95 c70 -141 187 -310 277 -399 44 -44 84 -80 89 -80 4 0 17 -10 29 -22 15
-16 20 -35 20 -75 0 -95 47 -151 98 -117 15 10 34 27 44 38 17 20 17 20 13
-24 -3 -25 -7 -67 -11 -95 -31 -240 -36 -480 -11 -570 l14 -50 7 93 c4 52 9
103 11 115 2 12 7 51 10 87 4 36 8 79 10 95 6 48 25 167 35 210 5 22 11 56 15
75 15 93 82 330 106 373 7 13 5 17 -10 17 -20 0 -55 -38 -104 -110 -23 -34
-64 -65 -75 -55 -2 2 -5 92 -8 201 -2 110 -6 213 -8 229 -2 17 -7 68 -11 115
-4 47 -9 103 -11 125 -3 22 -7 60 -9 85 -3 25 -7 59 -10 75 -2 17 -7 53 -10
80 -3 28 -8 68 -11 90 -3 22 -8 54 -10 70 -2 17 -6 53 -10 80 -4 28 -8 61 -9
75 -15 134 6 95 -402 747 -212 340 -400 641 -418 668 -17 28 -69 111 -115 185
-46 74 -99 155 -119 180 -65 83 -235 251 -341 336 -108 88 -292 214 -310 214
-5 0 -10 3 -10 8 0 4 -10 12 -23 18 -12 6 -74 38 -137 71 -189 97 -357 163
-575 227 -116 33 -146 40 -210 50 -16 3 -50 8 -75 12 -56 8 -355 11 -510 4z"/>
<path d="M3205 6999 c-22 -4 -51 -10 -64 -13 -202 -44 -443 -233 -574 -451
-52 -87 -137 -290 -139 -332 0 -5 -4 -18 -9 -30 -35 -93 -59 -432 -38 -553 56
-326 224 -515 518 -578 l78 -17 -49 -55 c-115 -128 -150 -281 -101 -438 22
-70 85 -141 155 -175 67 -32 108 -40 183 -39 231 5 375 143 439 422 19 81 26
126 47 310 6 58 13 112 14 120 1 8 45 38 98 65 54 28 128 73 167 102 l69 51
12 -36 c60 -189 245 -332 433 -334 113 -2 205 21 270 65 l29 20 -7 -74 c-3
-41 -8 -83 -10 -94 -2 -11 -7 -47 -10 -80 -4 -33 -9 -69 -10 -80 -2 -11 -7
-61 -11 -111 -21 -268 108 -420 356 -418 73 0 94 5 150 31 117 54 174 128 197
251 27 150 -17 301 -132 451 l-34 45 62 20 c33 12 88 39 121 61 l60 40 1 -47
c1 -73 6 -76 157 -78 73 -1 193 -3 267 -5 228 -6 384 -6 415 0 73 14 148 68
173 125 21 47 22 56 23 117 0 133 -87 216 -226 217 -112 1 -200 -54 -260 -160
-22 -39 -22 -39 -85 -40 -34 -1 -74 1 -87 5 l-24 6 42 65 c71 111 151 200 334
376 192 184 270 271 303 337 24 48 33 135 20 185 -8 30 -11 32 -56 33 -26 0
-112 2 -192 5 -443 13 -555 12 -617 -8 -105 -32 -163 -111 -165 -223 -1 -136
91 -226 233 -226 101 -1 205 66 256 166 22 41 28 44 92 38 65 -6 68 -8 50 -26
-8 -8 -37 -41 -65 -73 -29 -33 -62 -70 -75 -85 -13 -14 -64 -69 -114 -123 -49
-55 -105 -115 -124 -135 -18 -20 -40 -46 -48 -58 -21 -32 -27 -29 -57 20 -14
23 -34 53 -44 66 l-19 24 -13 -39 c-28 -87 -85 -187 -138 -239 -73 -74 -139
-105 -235 -110 -74 -4 -76 -4 -71 18 2 12 6 46 9 77 3 31 7 64 9 75 2 11 7 49
11 85 3 36 8 76 10 90 5 31 22 169 29 233 11 88 17 142 21 167 2 14 7 48 10
75 3 28 8 68 11 90 2 22 7 52 10 66 4 23 0 27 -34 37 -59 18 -145 14 -213 -8
-57 -19 -63 -20 -112 -4 -73 22 -249 30 -333 14 -307 -57 -525 -290 -561 -600
-5 -46 -12 -60 -42 -89 -46 -42 -164 -127 -215 -153 l-39 -20 7 60 c4 33 9 70
11 82 2 12 7 48 11 79 3 31 8 63 9 71 2 9 6 41 10 73 l7 57 -181 0 c-138 0
-181 -3 -182 -12 0 -7 -2 -22 -4 -33 -3 -11 -7 -47 -10 -80 -3 -33 -7 -71 -10
-85 -2 -14 -7 -53 -10 -88 -4 -35 -8 -71 -10 -80 -3 -19 -18 -159 -18 -179 0
-8 -15 -13 -36 -14 -20 0 -63 -2 -96 -3 -114 -3 -247 60 -316 151 -39 52 -85
173 -99 266 -12 74 -9 290 5 362 23 124 45 211 65 260 91 224 205 366 357 442
62 31 83 36 157 39 180 7 266 -67 282 -241 4 -47 -12 -139 -32 -177 -66 -129
-225 -155 -278 -45 -20 43 -21 93 -1 131 l15 28 -62 -6 c-212 -20 -285 -196
-139 -334 39 -38 115 -77 171 -88 44 -9 184 -10 228 -2 62 12 145 61 206 122
98 98 140 209 139 366 0 233 -129 394 -363 455 -72 19 -262 27 -325 14z m1629
-934 l28 -8 -6 -81 c-4 -44 -9 -92 -11 -106 -2 -14 -6 -50 -10 -80 -3 -30 -10
-91 -15 -135 -5 -44 -12 -109 -16 -145 -19 -192 -195 -310 -338 -226 -53 31
-81 69 -102 142 -40 139 17 428 103 524 13 14 23 28 23 31 0 12 77 60 126 78
50 19 158 22 218 6z m1001 -16 c30 -1 55 -6 55 -10 0 -15 -53 -70 -83 -86 -35
-18 -102 -19 -123 -2 -15 13 -19 56 -5 77 9 15 58 30 84 26 10 -2 42 -4 72 -5z
m490 -699 c20 -17 19 -64 -2 -81 -15 -13 -137 -20 -190 -11 l-22 4 26 35 c49
64 143 91 188 53z m-3039 -407 c-10 -120 -20 -177 -40 -246 -30 -102 -51 -122
-126 -119 -30 2 -79 53 -81 85 -7 105 41 193 156 284 22 18 51 41 65 52 14 11
27 20 29 21 2 0 0 -35 -3 -77z m1899 -98 c57 -88 86 -219 63 -286 -23 -66
-100 -98 -154 -63 -51 34 -57 70 -40 224 9 78 18 157 21 185 2 17 4 39 4 50 1
17 7 13 37 -20 20 -22 51 -62 69 -90z"/>
<path d="M8273 6994 c-158 -41 -238 -175 -268 -444 -3 -30 -8 -71 -10 -90 -2
-19 -7 -57 -10 -85 -3 -27 -8 -66 -10 -85 -2 -19 -7 -60 -10 -90 -3 -30 -8
-66 -10 -80 -2 -14 -7 -56 -11 -95 -4 -38 -8 -77 -9 -85 -2 -8 -6 -49 -11 -90
-4 -41 -9 -77 -9 -80 -1 -3 -5 -43 -10 -88 -7 -79 -10 -87 -48 -130 -137 -160
-327 -278 -478 -298 -70 -10 -95 -9 -149 6 -72 19 -135 72 -172 144 -45 88
-58 261 -28 381 31 123 124 249 205 281 54 20 138 14 167 -13 61 -55 67 -143
23 -315 -7 -27 -7 -27 39 -23 110 12 227 83 268 165 30 60 30 150 -2 214 -60
125 -226 194 -440 182 -148 -7 -262 -51 -380 -144 -183 -145 -263 -322 -256
-567 5 -150 39 -248 123 -352 39 -48 131 -121 183 -145 246 -113 621 -27 858
195 29 28 52 44 53 36 5 -96 76 -204 162 -247 59 -29 119 -40 212 -36 120 4
248 55 341 134 88 76 193 237 243 375 47 131 48 139 9 178 -50 50 -102 82 -96
60 2 -11 -14 -64 -46 -148 -56 -146 -165 -294 -250 -337 -22 -11 -62 -22 -90
-25 -91 -7 -136 41 -131 142 3 54 16 195 20 214 2 9 6 45 10 81 4 36 9 73 10
82 2 9 7 47 11 84 l6 68 102 101 c116 116 199 228 256 343 60 120 75 187 74
322 0 99 -3 122 -23 163 -29 60 -89 111 -155 133 -65 22 -196 26 -263 8z m247
-239 c48 -51 35 -187 -31 -317 -33 -65 -156 -238 -170 -238 -4 0 -6 12 -4 28
2 15 11 95 20 177 9 83 18 161 20 175 2 14 7 43 10 65 15 99 41 135 100 135
21 0 40 -9 55 -25z"/>
</g>
</svg>
